<?xml version="1.0" standalone="no"?>
<!DOCTYPE svg PUBLIC "-//W3C//DTD SVG 20010904//EN"
 "http://www.w3.org/TR/2001/REC-SVG-20010904/DTD/svg10.dtd">
<svg version="1.0" xmlns="http://www.w3.org/2000/svg"
 width="512.000000pt" height="512.000000pt" viewBox="0 0 512.000000 512.000000"
 preserveAspectRatio="xMidYMid meet">

<g transform="translate(0.000000,512.000000) scale(0.100000,-0.100000)"
fill="#000000" stroke="none">
<path d="M2511 5106 c-47 -26 -50 -46 -51 -284 0 -174 3 -229 14 -251 35 -66
137 -66 172 0 19 37 20 454 2 494 -22 48 -88 68 -137 41z"/>
<path d="M887 4422 c-21 -22 -27 -38 -27 -71 0 -42 3 -47 153 -198 83 -85 165
-162 181 -170 55 -29 125 6 141 69 12 46 -21 90 -179 247 -152 149 -154 151
-198 151 -35 0 -50 -6 -71 -28z"/>
<path d="M3964 4299 c-158 -157 -191 -201 -179 -247 16 -63 86 -98 141 -69 16
8 98 85 182 170 149 151 152 156 152 198 0 61 -37 99 -98 99 -44 0 -46 -2
-198 -151z"/>
<path d="M2375 4309 c-336 -45 -630 -194 -867 -437 -204 -210 -332 -451 -395
-743 -14 -65 -18 -129 -18 -279 0 -327 18 -384 326 -1045 126 -269 229 -494
229 -501 0 -6 -7 -17 -16 -25 -8 -7 -28 -36 -42 -63 -23 -44 -27 -64 -27 -136
0 -78 3 -90 33 -142 l32 -58 -32 -57 c-30 -53 -33 -65 -33 -143 0 -69 5 -93
23 -127 35 -66 79 -110 140 -140 53 -26 66 -28 209 -31 l152 -4 12 -36 c79
-245 333 -389 574 -327 162 43 292 166 344 327 l12 36 152 4 c143 3 156 5 209
31 61 30 105 74 140 140 18 34 23 58 23 127 0 78 -3 90 -33 143 l-32 57 31 55
c23 40 33 73 36 118 7 78 -8 131 -53 199 -31 45 -35 57 -26 78 5 14 108 236
229 495 299 638 318 700 318 1025 0 150 -4 214 -18 279 -66 304 -193 538 -411
757 -217 218 -444 341 -745 405 -112 23 -367 33 -476 18z m374 -205 c470 -69
867 -403 1019 -859 83 -249 84 -536 2 -788 -17 -50 -133 -312 -259 -582 l-229
-490 -191 -3 -191 -2 0 419 0 419 113 3 c98 4 119 8 169 32 72 35 130 93 165
165 24 49 28 69 28 142 0 73 -4 93 -28 142 -35 72 -93 130 -165 165 -49 24
-69 28 -142 28 -72 0 -93 -4 -140 -27 -71 -35 -133 -97 -168 -167 -23 -49 -27
-70 -31 -168 l-3 -113 -138 0 -138 0 -3 113 c-4 98 -8 119 -32 169 -35 72 -93
130 -165 165 -49 24 -69 28 -142 28 -72 0 -93 -4 -140 -27 -71 -35 -133 -97
-168 -167 -23 -48 -27 -69 -27 -141 0 -73 4 -93 28 -142 35 -72 93 -130 165
-165 50 -24 71 -28 170 -32 l112 -3 0 -419 0 -419 -191 2 -191 3 -218 467
c-247 528 -262 565 -297 697 -35 133 -43 355 -18 502 115 689 754 1155 1444
1053z m-598 -1427 c52 -34 69 -78 69 -174 l0 -83 -82 0 c-97 0 -141 17 -175
69 -79 118 70 267 188 188z m960 0 c93 -62 87 -189 -12 -239 -24 -13 -58 -18
-116 -18 l-83 0 0 88 c0 69 4 94 20 120 43 70 128 92 191 49z m-411 -877 l0
-420 -140 0 -140 0 0 420 0 420 140 0 140 0 0 -420z m605 -632 c49 -22 68 -85
41 -137 -23 -44 -53 -51 -211 -51 -158 0 -188 -7 -211 -51 -27 -52 -8 -115 41
-137 16 -8 80 -12 170 -12 158 0 188 -7 211 -51 27 -52 8 -115 -41 -137 -37
-17 -1453 -17 -1490 0 -47 21 -67 82 -43 133 21 47 53 55 212 55 159 0 189 7
212 51 27 52 8 115 -41 137 -16 8 -80 12 -170 12 -158 0 -188 7 -211 51 -26
51 -10 109 37 135 33 18 1454 20 1494 2z m-485 -793 c0 -3 -8 -18 -17 -33 -87
-140 -268 -183 -398 -94 -38 27 -105 104 -105 123 0 5 108 9 260 9 143 0 260
-2 260 -5z"/>
<path d="M2511 966 c-87 -48 -50 -186 49 -186 51 0 100 49 100 99 0 75 -83
124 -149 87z"/>
<path d="M260 2843 c-55 -20 -83 -89 -56 -140 25 -50 50 -54 303 -51 210 3
233 5 252 22 27 25 37 78 21 117 -23 54 -46 59 -287 58 -120 0 -225 -3 -233
-6z"/>
<path d="M4381 2836 c-57 -32 -68 -111 -22 -157 l29 -29 232 0 c255 0 277 4
300 59 16 39 5 82 -26 112 -25 24 -29 24 -257 26 -180 2 -237 0 -256 -11z"/>
<path d="M1205 1521 c-11 -5 -93 -83 -182 -173 -150 -151 -163 -167 -163 -200
0 -69 68 -119 129 -97 31 12 316 292 337 331 21 41 17 74 -13 108 -30 32 -75
45 -108 31z"/>
<path d="M3844 1521 c-41 -18 -66 -62 -61 -105 5 -35 24 -58 159 -194 84 -85
167 -160 183 -167 64 -28 135 21 135 93 0 33 -13 49 -167 204 -173 173 -198
190 -249 169z"/>
</g>
</svg>
