<?xml version="1.0" standalone="no"?>
<!DOCTYPE svg PUBLIC "-//W3C//DTD SVG 20010904//EN"
 "http://www.w3.org/TR/2001/REC-SVG-20010904/DTD/svg10.dtd">
<svg version="1.0" xmlns="http://www.w3.org/2000/svg"
 width="512.000000pt" height="512.000000pt" viewBox="0 0 512.000000 512.000000"
 preserveAspectRatio="xMidYMid meet">

<g transform="translate(0.000000,512.000000) scale(0.100000,-0.100000)"
fill="#000000" stroke="none">
<path d="M95 5106 c-41 -18 -83 -69 -90 -109 -3 -18 -4 -741 -3 -1607 l3
-1575 24 -34 c13 -18 42 -42 65 -52 39 -18 88 -19 1080 -19 1031 0 1040 0
1082 21 26 12 53 36 66 57 l23 37 3 1580 2 1580 -22 45 c-15 30 -37 53 -63 67
l-40 23 -1050 -1 c-851 0 -1056 -2 -1080 -13z m1935 -1691 l0 -1385 -855 0
-855 0 0 1385 0 1385 855 0 855 0 0 -1385z"/>
<path d="M2855 5097 c-26 -14 -48 -37 -62 -67 l-23 -44 0 -606 c0 -378 4 -619
10 -642 16 -57 77 -105 142 -113 29 -3 510 -5 1068 -3 l1015 3 37 23 c22 13
45 40 58 66 20 43 20 52 18 674 -3 619 -3 631 -24 658 -11 15 -33 37 -48 48
-27 21 -34 21 -1089 23 l-1062 3 -40 -23z m1945 -727 l0 -430 -852 2 -853 3
-3 428 -2 427 855 0 855 0 0 -430z"/>
<path d="M2863 3389 c-24 -12 -52 -37 -65 -57 l-23 -37 -3 -1580 -2 -1580 22
-45 c15 -30 37 -53 63 -67 l40 -23 1062 3 c1055 2 1062 2 1089 23 15 11 37 33
48 48 21 27 21 29 23 1619 l3 1592 -23 40 c-14 26 -37 48 -67 63 l-44 22
-1041 0 c-1035 0 -1040 0 -1082 -21z m1937 -1684 l0 -1385 -855 0 -855 0 0
1385 0 1385 855 0 855 0 0 -1385z"/>
<path d="M119 1490 c-45 -13 -79 -42 -100 -82 -19 -37 -19 -59 -17 -672 3
-623 3 -635 24 -662 11 -15 33 -37 48 -48 27 -21 34 -21 1089 -23 l1062 -3 40
23 c26 14 48 37 63 67 l22 44 0 606 c0 366 -4 619 -10 640 -13 47 -68 99 -116
111 -48 11 -2069 10 -2105 -1z m1909 -742 l2 -428 -855 0 -855 0 0 430 0 430
853 -2 852 -3 3 -427z"/>
</g>
</svg>
