<?xml version="1.0" standalone="no"?>
<!DOCTYPE svg PUBLIC "-//W3C//DTD SVG 20010904//EN"
 "http://www.w3.org/TR/2001/REC-SVG-20010904/DTD/svg10.dtd">
<svg version="1.0" xmlns="http://www.w3.org/2000/svg"
 width="512.000000pt" height="512.000000pt" viewBox="0 0 512.000000 512.000000"
 preserveAspectRatio="xMidYMid meet">

<g transform="translate(0.000000,512.000000) scale(0.100000,-0.100000)"
fill="#000000" stroke="none">
<path d="M950 5109 c-125 -25 -253 -129 -313 -256 l-32 -68 0 -2226 0 -2225
38 -77 c62 -126 161 -208 292 -242 52 -13 250 -15 1620 -15 1723 0 1622 -4
1734 63 64 38 134 113 167 179 54 107 52 3 59 2353 l7 2180 -22 64 c-39 117
-106 191 -220 245 l-65 31 -1610 1 c-902 1 -1630 -2 -1655 -7z m3216 -174 c61
-18 116 -62 152 -123 l27 -47 3 -460 c1 -253 -1 -1238 -5 -2190 l-8 -1730 -28
-57 c-16 -32 -47 -74 -70 -93 -81 -69 25 -66 -1707 -63 -1504 3 -1566 4 -1600
22 -49 26 -108 84 -133 131 l-22 40 0 2195 0 2195 22 40 c33 61 95 115 155
136 51 18 125 18 1609 19 1341 0 1562 -2 1605 -15z"/>
<path d="M3250 4534 c-112 -30 -203 -107 -254 -214 -28 -59 -31 -74 -31 -165
0 -91 3 -106 32 -167 17 -36 49 -84 71 -106 l41 -41 -50 -31 c-65 -42 -143
-130 -179 -199 -50 -100 -63 -164 -64 -306 -1 -147 9 -178 74 -218 35 -22 41
-22 455 -22 414 0 420 0 455 22 65 40 75 71 74 218 -1 103 -5 145 -22 200 -38
125 -122 241 -223 307 l-47 30 41 42 c22 22 54 70 71 106 28 59 31 74 31 165
0 91 -3 106 -31 165 -53 111 -141 184 -259 214 -72 19 -113 19 -185 0z m157
-169 c59 -18 123 -80 143 -139 47 -145 -72 -305 -217 -294 -192 16 -272 252
-131 386 32 30 98 60 139 61 8 1 38 -6 66 -14z m78 -669 c76 -34 139 -97 178
-174 29 -60 32 -76 35 -174 l4 -108 -357 0 -357 0 4 108 c2 90 7 116 29 163
86 184 290 265 464 185z"/>
<path d="M1293 3903 c-30 -6 -63 -49 -63 -84 0 -15 11 -41 24 -56 l24 -28 559
-3 c388 -2 570 0 596 8 79 23 86 125 11 156 -27 11 -136 14 -581 13 -301 -1
-558 -4 -570 -6z"/>
<path d="M1255 3285 c-27 -27 -33 -79 -12 -106 29 -38 40 -39 642 -39 l587 0
29 29 c31 31 36 59 17 94 -25 47 -10 46 -641 47 l-598 0 -24 -25z"/>
<path d="M1275 2708 c-52 -28 -62 -92 -20 -133 l24 -25 1281 0 1281 0 24 25
c42 41 31 105 -22 133 -30 16 -2539 17 -2568 0z"/>
<path d="M1255 2055 c-25 -24 -32 -65 -19 -100 18 -46 -19 -45 1324 -45 940 0
1267 3 1283 12 53 28 64 92 22 133 l-24 25 -1281 0 -1281 0 -24 -25z"/>
<path d="M1255 1425 c-25 -24 -32 -65 -19 -100 18 -46 -19 -45 1324 -45 940 0
1267 3 1283 12 53 28 64 92 22 133 l-24 25 -1281 0 -1281 0 -24 -25z"/>
<path d="M1251 744 c-29 -37 -27 -85 5 -115 l26 -24 368 0 368 0 26 24 c32 30
34 78 5 115 l-20 26 -379 0 -379 0 -20 -26z"/>
<path d="M3160 750 c-28 -28 -34 -63 -16 -98 26 -51 44 -53 385 -50 l313 3 24
28 c31 37 31 81 -1 112 l-24 25 -331 0 c-315 0 -331 -1 -350 -20z"/>
</g>
</svg>
